# xmcd
#
# Track frame offsets:
# 150
# 18257
# 37552
# 57165
# 79302
# 99382
# 116475
# 131067
# 143442
# 155932
# 168190
# 182780
# 193277
#
# Disc length: 3048 seconds
#
#
# Revision: 1
# Processed by: cddbd v1.5.2PL0 Copyright (c) Steve Scherf et al.
# Submitted via: FreeRIP 2.96 
#
DISCID=a60be60d
DTITLE=Paulo Simões - Paulo Simões and o Expresso Arasta-pé - Vol. II
DYEAR=1997
DGENRE=Latin
TTITLE0=Trem Da Solidão
TTITLE1=Ordem Natural Das Coisas
TTITLE2=Labaredas
TTITLE3=Vida Bela Vida
TTITLE4=Santa Branca
TTITLE5=Vaso Quebrado
TTITLE6=Boa Terra
TTITLE7=No Circo Das Ilusões
TTITLE8=Coça-Coça
TTITLE9=No Boteco Do Seu Roque
TTITLE10=Arauto
TTITLE11=A Volta Da Curitibana
TTITLE12=Carnaval Caipira
EXTD=
EXTT0=
EXTT1=
EXTT2=
EXTT3=
EXTT4=
EXTT5=
EXTT6=
EXTT7=
EXTT8=
EXTT9=
EXTT10=
EXTT11=
EXTT12=
PLAYORDER=
